<?xml version="1.0" encoding="UTF-8"?>
<svg width="500px" height="500px" viewBox="0 0 500 500" version="1.1" xmlns="http://www.w3.org/2000/svg"
     xmlns:xlink="http://www.w3.org/1999/xlink">
    <title>Schlauhaus-Energy-Monitor</title>
    <g id="svgRoot" fill="none" fill-rule="evenodd">
        <g id="Haus" transform="translate(64.4708, -22.162)">
            <path d="M88.536,241.977 L248.557,241.977 C255.872,241.977 261.801,248.076 261.801,255.599 L261.801,353.469 L274.278,353.469 L274.185,275.587 L274.185,232.453 L272.861,231.091 L88.536,231.091 L88.536,241.977 Z"
                  id="Path" fill="#FFFF5F"></path>
            <path d="M329.755,161.667 C329.755,161.667 344.135,158.957 350.902,168.43 C356.625,176.442 383.646,215.917 391.845,227.903 C393.39,230.161 394.209,232.823 394.209,235.559 L394.209,353.467 L408.454,353.467 L408.126,230.131 L344.404,143.241 L329.755,161.667 Z"
                  id="Path" fill="#FFFF5F"></path>
            <g id="Group" transform="translate(55.5601, 108.1829)" stroke="#121C63" stroke-linecap="round"
               stroke-linejoin="round" stroke-width="1.5">
                <polygon id="Path"
                         points="288.844 35.06 352.565 121.95 352.893 245.286 218.924 245.286 218.924 121.95"></polygon>
                <path d="M219.226047,122.453 L219.226047,245.285 L31.538,245.285 L31.538,122.344 C31.538,122.344 219.335,122.562 219.226047,122.453 Z"
                      id="Path"></path>
                <polygon id="Path" points="31.058 122.411 219.389 122.411 288.844 35.06 104.002 35.299"></polygon>
                <polygon id="Path" points="109.774 45.27 262.483 45.27 208.431 111.916 55.723 111.916"></polygon>
                <line x1="247.068" y1="63.112" x2="96.655" y2="63.112" id="Path"></line>
                <line x1="227.087" y1="87.351" x2="76.674" y2="87.351" id="Path"></line>
                <line x1="92.256" y1="111.644" x2="144.992" y2="45.478" id="Path"></line>
                <line x1="171.076" y1="111.644" x2="223.812" y2="45.478" id="Path"></line>
                <line x1="132.097" y1="111.644" x2="184.833" y2="45.478" id="Path"></line>
            </g>
            <path id="Line"
                  d="M185.827721,280.119648 L193.572893,273.696073 L185.335964,270.069366 L185.827721,280.119648 Z M244.571598,145.460557 L188.768536,272.199715 L188.567052,272.657322 L189.482266,273.06029 L189.68375,272.602682 L245.486812,145.863525 L245.688296,145.405918 L244.773082,145.00295 L244.571598,145.460557 Z"
                  fill="#54A9F5" fill-rule="nonzero"></path>
        </g>
        <g id="iMSE" transform="translate(179.0261, 228.906)" stroke="#121C63" stroke-linecap="round"
           stroke-linejoin="round" stroke-width="1.8601695">
            <g id="Group">
                <path d="M79.7938309,90.0036812 L40.1250962,90.0036812 C39.782825,90.0036812 39.5050397,89.7258959 39.5050397,89.3836247 L39.5050397,34.6276753 C39.5050397,34.2854041 39.782825,34.0076188 40.1250962,34.0076188 L79.7938309,34.0076188 C80.1361021,34.0076188 80.4138874,34.2854041 80.4138874,34.6276753 L80.4138874,89.3823846 C80.4138874,89.7258959 80.1361021,90.0036812 79.7938309,90.0036812 Z"
                      id="Path"></path>
                <path d="M72.4225992,60.6489664 L47.497568,60.6489664 C47.3425539,60.6489664 47.2173025,60.523715 47.2173025,60.3687008 L47.2173025,40.5095313 C47.2173025,40.3545171 47.3425539,40.2292657 47.497568,40.2292657 L72.4225992,40.2292657 C72.5776133,40.2292657 72.7028647,40.3545171 72.7028647,40.5095313 L72.7028647,60.369941 C72.7016246,60.523715 72.5763732,60.6489664 72.4225992,60.6489664 L72.4225992,60.6489664 Z"
                      id="Path"></path>
                <line x1="47.2173025" y1="66.0967828" x2="72.7016246" y2="66.0967828" id="Path"></line>
                <path d="M68.2409382,51.5651387 L51.6779889,51.5651387 C51.6122629,51.5651387 51.5589381,51.5118138 51.5589381,51.4460878 L51.5589381,44.5721414 C51.5589381,44.5064155 51.6122629,44.4530906 51.6779889,44.4530906 L68.2409382,44.4530906 C68.3066642,44.4530906 68.359989,44.5064155 68.359989,44.5721414 L68.359989,51.4460878 C68.359989,51.5118138 68.3066642,51.5651387 68.2409382,51.5651387 Z"
                      id="Path"></path>
                <circle id="Oval" cx="51.6209437" cy="56.0233449" r="1"></circle>
                <circle id="Oval" cx="57.1803703" cy="56.0233449" r="1"></circle>
                <circle id="Oval" cx="62.7397969" cy="56.0233449" r="1"></circle>
                <circle id="Oval" cx="68.2979834" cy="56.0233449" r="1"></circle>
            </g>
            <polygon id="Path" fill="#FFFF5F"
                     points="80.4138874 43.7214239 84.5050202 43.7214239 84.5050202 49.9405906 80.4138874 49.9405906"></polygon>
            <polygon id="Path" fill="#FFFF5F"
                     points="80.4138874 55.2172714 84.5050202 55.2172714 84.5050202 61.4364381 80.4138874 61.4364381"></polygon>
            <polygon id="Path" fill="#FFFFFF"
                     points="58.4688477 70.6517178 62.9233336 70.6517178 61.2529014 74.9201868 66.450215 74.9201868 59.5824692 86.1481699 60.5113138 78.445828 55.3202008 78.445828"></polygon>
            <polygon id="Path" fill="#FFFF5F"
                     points="39.5050397 40.2057036 72.6693817 40.2057036 72.6693817 90.0036812 79.7938309 90.0036812 80.4138874 89.3836247 80.4138874 34.6276753 79.7938309 34.0076188 40.1250962 34.0076188"></polygon>
        </g>
        <g id="Sonne" transform="translate(329.0478, -28.3787)" stroke="#121C63" stroke-linecap="round"
           stroke-linejoin="round">
            <circle id="Oval" stroke-width="2.3780325" cx="79.26775" cy="79.26775" r="10.1066381"></circle>
            <line x1="79.26775" y1="54.044752" x2="79.26775" y2="41.7677628" id="Path" stroke-width="2.3780325"></line>
            <line x1="61.4325062" y1="61.4325062" x2="52.7511023" y2="52.7511023" id="Path"
                  stroke-width="2.3780325"></line>
            <line x1="54.044752" y1="79.26775" x2="41.7677628" y2="79.26775" id="Path" stroke-width="2.3780325"></line>
            <line x1="79.26775" y1="104.490748" x2="79.26775" y2="116.767737" id="Path" stroke-width="2.3780325"></line>
            <line x1="61.4325062" y1="97.1029937" x2="52.7511023" y2="105.784398" id="Path"
                  stroke-width="2.3780325"></line>
            <line x1="97.1029937" y1="61.4325062" x2="105.784398" y2="52.7511023" id="Path"
                  stroke-width="2.3780325"></line>
            <line x1="104.490748" y1="79.26775" x2="116.767737" y2="79.26775" id="Path" stroke-width="2.3780325"></line>
            <line x1="97.1029937" y1="97.1029937" x2="105.784398" y2="105.784398" id="Path"
                  stroke-width="2.3780325"></line>
            <path d="M89.3728028,79.2788475 C89.3728028,83.7384511 86.5033102,87.5100106 82.4939474,88.8623185 C82.8252866,87.8429352 83.0155292,86.7744059 83.0155292,85.636121 C83.0155292,80.0620129 78.4845846,75.5310683 72.9104765,75.5310683 C71.7721916,75.5310683 70.7052476,75.7213109 69.684279,76.0526501 C71.0365868,72.0432873 74.8081464,69.1500144 79.26775,69.1500144 C84.8656385,69.1500144 89.3728028,73.680959 89.3728028,79.2788475 Z"
                  id="Path" stroke-width="1.585355" fill="#FFFF5F"></path>
        </g>
        <g id="Klimaanlage" transform="translate(352.605, 131.358)">
            <path d="M80.881,63.922 L19.408,63.922 C19.132,63.922 18.908,63.698 18.908,63.422 L18.908,43.729 C18.908,43.453 19.132,43.229 19.408,43.229 L80.881,43.229 C81.157,43.229 81.381,43.453 81.381,43.729 L81.381,63.423 C81.381,63.698 81.157,63.922 80.881,63.922 L80.881,63.922 Z"
                  id="Path" stroke="#121C63" stroke-width="1.5" stroke-linecap="round" stroke-linejoin="round"></path>
            <path d="M73.608,63.923 L26.681,63.923 L26.681,59.037 C26.681,56.828 28.472,55.037 30.681,55.037 L69.608,55.037 C71.817,55.037 73.608,56.828 73.608,59.037 L73.608,63.923 Z"
                  id="Path" stroke="#121C63" stroke-width="1.5" stroke-linecap="round" stroke-linejoin="round"></path>
            <line x1="32.639" y1="59.495" x2="67.65" y2="59.495" id="Path" stroke="#121C63" stroke-width="1.5"
                  stroke-linecap="round" stroke-linejoin="round"></line>
            <path d="M39.691,80.607 C39.691,78.746 40.691,78.746 40.691,76.885 C40.691,75.021 39.691,75.021 39.691,73.157 C39.691,71.293 40.691,71.293 40.691,69.429"
                  id="Path" stroke="#121C63" stroke-width="1.5" stroke-linecap="round" stroke-linejoin="round"></path>
            <path d="M59.598,80.607 C59.598,78.746 60.598,78.746 60.598,76.885 C60.598,75.021 59.598,75.021 59.598,73.157 C59.598,71.293 60.598,71.293 60.598,69.429"
                  id="Path" stroke="#121C63" stroke-width="1.5" stroke-linecap="round" stroke-linejoin="round"></path>
            <path d="M49.645,80.607 C49.645,78.746 50.645,78.746 50.645,76.885 C50.645,75.021 49.645,75.021 49.645,73.157 C49.645,71.293 50.645,71.293 50.645,69.429"
                  id="Path" stroke="#121C63" stroke-width="1.5" stroke-linecap="round" stroke-linejoin="round"></path>
            <line x1="49.947" y1="37.823" x2="49.947" y2="19.393" id="Path" stroke="#121C63" stroke-width="1.5"
                  stroke-linecap="round" stroke-linejoin="round"></line>
            <line x1="41.704" y1="33.064" x2="57.666" y2="23.849" id="Path" stroke="#121C63" stroke-width="1.5"
                  stroke-linecap="round" stroke-linejoin="round"></line>
            <line x1="58.19" y1="33.064" x2="42.228" y2="23.849" id="Path" stroke="#121C63" stroke-width="1.5"
                  stroke-linecap="round" stroke-linejoin="round"></line>
            <polyline id="Path" stroke="#121C63" stroke-width="1.5" stroke-linecap="round" stroke-linejoin="round"
                      points="52.428 20.951 49.947 23.432 47.466 20.951"></polyline>
            <polyline id="Path" stroke="#121C63" stroke-width="1.5" stroke-linecap="round" stroke-linejoin="round"
                      points="52.428 35.659 49.947 33.179 47.466 35.659"></polyline>
            <polyline id="Path" stroke="#121C63" stroke-width="1.5" stroke-linecap="round" stroke-linejoin="round"
                      points="57.702 26.631 54.313 25.723 55.221 22.335"></polyline>
            <polyline id="Path" stroke="#121C63" stroke-width="1.5" stroke-linecap="round" stroke-linejoin="round"
                      points="42.193 29.98 45.581 30.888 44.673 34.276"></polyline>
            <polyline id="Path" stroke="#121C63" stroke-width="1.5" stroke-linecap="round" stroke-linejoin="round"
                      points="57.702 29.98 54.313 30.888 55.221 34.276"></polyline>
            <polyline id="Path" stroke="#121C63" stroke-width="1.5" stroke-linecap="round" stroke-linejoin="round"
                      points="42.193 26.631 45.581 25.723 44.673 22.335"></polyline>
            <path d="M18.619,48.203 L67.47,48.203 C70.86,48.203 73.609,50.951 73.609,54.342 L73.609,63.963 L80.662,63.963 L81.276,63.349 L81.276,51.2 L81.276,43.911 L80.662,43.297 L18.619,43.297 L18.619,48.203 Z"
                  id="Path" stroke="#121C63" stroke-width="1.5" fill="#FFFF5F" stroke-linecap="round"
                  stroke-linejoin="round"></path>
            <path id="Line"
                  d="M23.3040848,66.8545252 L13.3531048,68.3471723 L18.5276144,75.7108975 L23.3040848,66.8545252 Z M-87.8175382,145.551094 L16.6872088,72.1153256 L17.0963047,71.8278529 L16.5213591,71.0096612 L16.1122633,71.2971339 L-88.3924838,144.732902 L-88.8015796,145.020375 L-88.2266341,145.838567 L-87.8175382,145.551094 Z"
                  fill="#54A9F5" fill-rule="nonzero"></path>
        </g>
        <g id="Heizung" transform="translate(340.7209, 231.6078)">
            <path d="M28.2178875,48.7007958 L82.5769816,48.7007958 C87.635934,48.7007958 91.7367216,52.8015834 91.7367216,57.8592215 L91.7367216,90.0122878 L102.259448,90.0122878 L103.174239,89.0961824 L103.174239,42.2972583 L102.259448,41.3811528 L28.2178875,41.3811528 L28.2178875,48.7007958 Z"
                  id="Path" stroke="#FFFFFF" stroke-width="1.314355" fill="#FFFF5F" stroke-linecap="round"
                  stroke-linejoin="round"></path>
            <g id="Group" stroke="#121C63" stroke-linecap="round" stroke-linejoin="round" stroke-width="1.9715325">
                <polygon id="Path"
                         points="28.5346471 41.3811528 103.216298 41.3811528 103.216298 90.0530328 28.5346471 90.0530328"></polygon>
                <path d="M102.494717,95.1172426 L29.2575423,95.1172426 C28.8579784,95.1172426 28.534647,94.7939113 28.534647,94.3943474 L28.534647,37.0411526 C28.534647,36.6415887 28.8579784,36.3182574 29.2575423,36.3182574 L102.494717,36.3182574 C102.894281,36.3182574 103.217613,36.6415887 103.217613,37.0411526 L103.217613,94.3943474 C103.217613,94.7939113 102.892967,95.1172426 102.494717,95.1172426 Z"
                      id="Path"></path>
                <line x1="76.5007184" y1="53.2773799" x2="95.666643" y2="53.2773799" id="Path"></line>
                <line x1="76.5007184" y1="59.5205662" x2="95.666643" y2="59.5205662" id="Path"></line>
                <line x1="76.5007184" y1="65.7637524" x2="95.666643" y2="65.7637524" id="Path"></line>
                <line x1="76.5007184" y1="72.0069387" x2="95.666643" y2="72.0069387" id="Path"></line>
                <line x1="76.5007184" y1="78.2514393" x2="95.666643" y2="78.2514393" id="Path"></line>
            </g>
            <circle id="Oval" stroke="#121C63" stroke-width="1.9715325" fill="#FFFFFF" stroke-linecap="round"
                    stroke-linejoin="round" cx="51.8591909" cy="65.4207058" r="16.397893"></circle>
            <circle id="Oval" stroke="#121C63" stroke-width="1.9715325" fill="#FFFFFF" stroke-linecap="round"
                    stroke-linejoin="round" cx="51.8591909" cy="65.4207058" r="4.07318615"></circle>
            <g id="Group" stroke="#121C63" stroke-linecap="round" stroke-linejoin="round" stroke-width="1.9715325">
                <line x1="51.8591909" y1="61.3475196" x2="51.8591909" y2="49.0228128" id="Path"></line>
                <line x1="48.9794391" y1="62.540954" x2="40.2652654" y2="53.8267803" id="Path"></line>
                <line x1="47.7873191" y1="65.4207058" x2="35.4626123" y2="65.4207058" id="Path"></line>
                <line x1="51.8591909" y1="69.4938919" x2="51.8591909" y2="81.8185987" id="Path"></line>
                <line x1="48.9794391" y1="68.3004576" x2="40.2652654" y2="77.0159456" id="Path"></line>
                <line x1="54.7389427" y1="68.3004576" x2="63.4544307" y2="77.0159456" id="Path"></line>
                <line x1="55.932377" y1="65.4207058" x2="68.2570839" y2="65.4207058" id="Path"></line>
                <line x1="54.7389427" y1="62.540954" x2="63.4544307" y2="53.8267803" id="Path"></line>
            </g>
            <path id="Line"
                  d="M26.279114,81.892242 L17.279114,77.392242 L17.279114,86.392242 L26.279114,81.892242 Z M-77.220886,82.392242 L17.779114,82.392242 L18.279114,82.392242 L18.279114,81.392242 L17.779114,81.392242 L-77.220886,81.392242 L-77.720886,81.392242 L-77.720886,82.392242 L-77.220886,82.392242 Z"
                  fill="#54A9F5" fill-rule="nonzero"></path>
        </g>
        <g id="Netz" transform="translate(-524.6939, -321.7647)">
            <path d="M630.222906,424.183876 L637.862498,411.70332 C638.307077,410.977687 637.784143,410.045946 636.934164,410.045946 L629.686346,410.045946 C628.686471,410.045946 628.001718,409.040961 628.364535,408.110924 L631.456143,400.203903 C631.735494,399.490193 631.209155,398.718569 630.44264,398.718569 L623.854025,398.718569 L626.051365,393.267801 L637.872718,393.267801 L633.443969,404.612212 L647.224192,404.612212 L628.998187,434.404066 L630.222906,424.183876 Z"
                  id="Path" fill="#FFFF5F"></path>
            <g id="Group" transform="translate(540.4484, 352.2088)" stroke="#121C63" stroke-linecap="round"
               stroke-linejoin="round" stroke-width="2.5550475">
                <polygon id="Path"
                         points="85.5923879 41.0664268 97.4154444 41.0664268 92.9815853 52.3955074 106.773732 52.3955074 88.5477262 82.1975814 91.010792 61.7554981 77.2339758 61.7554981"></polygon>
                <circle id="Oval" fill="#FFFF5F" cx="40.1244659" cy="89.8984946" r="5.00448637"></circle>
                <path d="M40.1244659,49.6173191 C50.3531728,75.3193936 40.1244659,84.8940082 40.1244659,84.8940082 C40.1244659,84.8940082 29.8957591,75.3193936 40.1244659,49.6173191 Z"
                      id="Path"></path>
                <path d="M5.23955074,110.039082 C22.3839195,88.3296954 35.789402,92.4007378 35.789402,92.4007378 C35.789402,92.4007378 32.6126263,106.046395 5.23955074,110.039082 Z"
                      id="Path"></path>
                <path d="M75.0093811,110.039082 C47.6363056,106.046395 44.4578265,92.4007378 44.4578265,92.4007378 C44.4578265,92.4007378 57.863309,88.3296954 75.0093811,110.039082 Z"
                      id="Path"></path>
                <line x1="24.5744469" y1="146.542194" x2="55.1208914" y2="146.542194" id="Path"></line>
                <line x1="96.9725694" y1="147.335962" x2="155.239576" y2="147.335962" id="Path"></line>
                <polygon id="Path" fill="#FFFF5F"
                         points="43.1785994 146.542194 37.0703325 146.542194 37.8964645 94.902981 42.350764 94.902981"></polygon>
                <g id="Path">
                    <polygon
                            points="101.246312 134.989973 126.573646 134.989973 124.393339 117.63098 103.426619 117.63098"></polygon>
                    <polygon
                            points="131.918806 138.299611 152.793544 138.299611 150.996494 124.369492 133.715856 124.369492"></polygon>
                    <line x1="113.994296" y1="134.989973" x2="113.994296" y2="146.472356"></line>
                    <line x1="142.20202" y1="138.301314" x2="142.20202" y2="147.335962"></line>
                    <line x1="102.351796" y1="126.183576" x2="124.843028" y2="126.183576"></line>
                    <line x1="132.848843" y1="131.094377" x2="151.108916" y2="131.094377"></line>
                    <line x1="138.599403" y1="137.817559" x2="139.829233" y2="124.369492"></line>
                    <line x1="145.804637" y1="137.817559" x2="144.574808" y2="124.369492"></line>
                    <line x1="108.969369" y1="134.989973" x2="110.730649" y2="117.63098"></line>
                    <line x1="119.276431" y1="134.989973" x2="117.516855" y2="117.63098"></line>
                </g>
            </g>
            <path id="Line"
                  d="M738.605223,598.548969 L733.760189,589.729919 L728.642962,597.133566 L738.605223,598.548969 Z M601.909619,504.675993 L731.376828,594.160681 L731.788141,594.444972 L732.356722,593.622344 L731.945408,593.338054 L602.478199,503.853365 L602.066886,503.569075 L601.498305,504.391702 L601.909619,504.675993 Z"
                  fill="#54A9F5" fill-rule="nonzero"></path>
            <path id="Line"
                  d="M738.606563,615.547021 L733.719875,606.750983 L728.63772,614.178748 L738.606563,615.547021 Z M585.911567,511.677333 L731.355879,611.191862 L731.768532,611.474204 L732.333216,610.648896 L731.920563,610.366554 L586.476251,510.852025 L586.063597,510.569683 L585.498913,511.394991 L585.911567,511.677333 Z"
                  transform="translate(662.1939, 563.2647) scale(-1, -1) translate(-662.1939, -563.2647)" fill="#54A9F5"
                  fill-rule="nonzero"></path>
        </g>
        <g id="eAuto" transform="translate(-31.1373, -22.5082)">
            <path d="M175.652,451.928 L175.612,470.183 L169.494,470.183 L169.514,458.066 C169.514,449.789 166.236,441.851 160.377,435.994 L144.962,420.579 C139.104,414.741 131.167,411.441 122.909,411.441 L99.758,411.441 C99.178,411.441 98.618,411.503 98.078,411.623 C98.858,408.023 102.057,405.305 105.896,405.305 L129.028,405.305 C137.306,405.305 145.243,408.604 151.101,414.461 L166.516,429.878 C172.374,435.714 175.652,443.651 175.652,451.928 Z"
                  id="Path" fill="#FFFF5F"></path>
            <path d="M60.303,422.465 L65.143,422.465 C68.523,422.465 71.273,425.215 71.273,428.595 C71.273,431.975 68.523,434.725 65.143,434.725 L60.303,434.725 L60.303,422.465 Z"
                  id="Path" fill="#FFFFFF"></path>
            <g id="Group" transform="translate(34.4761, 354.642)">
                <g id="Path">
                    <line x1="20.302042" y1="71.0178088" x2="25.3462608" y2="71.0178088" stroke="#FFFFFF"
                          stroke-width="1.788096"></line>
                    <line x1="20.302042" y1="76.8917042" x2="25.8272586" y2="76.8917042" stroke="#FFFFFF"
                          stroke-width="1.788096"></line>
                    <path d="M25.8272586,67.8242694 L30.6676345,67.8242694 C34.0471359,67.8242694 36.7972276,70.574361 36.7972276,73.9538625 C36.7972276,77.3333639 34.0471359,80.0834556 30.6676345,80.0834556 L25.8272586,80.0834556 L25.8272586,67.8242694 Z"
                          stroke="#121C63" stroke-width="2.682144"></path>
                    <line x1="20.302042" y1="71.0178088" x2="25.3462608" y2="71.0178088" stroke="#121C63"
                          stroke-width="2.682144"></line>
                    <line x1="20.302042" y1="76.8917042" x2="25.8272586" y2="76.8917042" stroke="#121C63"
                          stroke-width="2.682144"></line>
                    <path d="M141.139782,115.534247 L63.421977,115.534247 L63.421977,58.6674298 C63.421977,54.2508326 67.0017452,50.6692764 71.4201304,50.6692764 L94.563457,50.6692764 C102.838765,50.6692764 110.776123,53.9575849 116.628562,59.808235 L132.041949,75.2216225 C137.894387,81.0740607 141.180908,89.0096308 141.180908,97.2867272 L141.139782,115.534247 Z"
                          stroke="#121C63" stroke-width="2.682144"></path>
                </g>
                <circle id="Oval" stroke="#121C63" stroke-width="2.682144" fill="#FFFFFF" cx="132.683876"
                        cy="115.534247" r="12.6150173"></circle>
                <circle id="Oval" stroke="#121C63" stroke-width="2.682144" fill="#FFFFFF" cx="71.7866901"
                        cy="115.534247" r="12.6150173"></circle>
            </g>
            <path d="M179.778,470.155 C179.778,475.515 176.459,480.073 171.761,481.913 C172.321,480.473 172.641,478.914 172.641,477.294 C172.641,470.336 167.002,464.679 160.026,464.679 C158.406,464.679 156.846,464.979 155.427,465.559 C157.266,460.881 161.824,457.56 167.162,457.56 C174.119,457.56 179.778,463.198 179.778,470.155 Z"
                  id="Path" fill="#FFFF5F"></path>
            <path d="M118.878,470.155 C118.878,475.515 115.559,480.073 110.859,481.913 C111.419,480.473 111.739,478.914 111.739,477.294 C111.739,470.336 106.102,464.679 99.124,464.679 C97.504,464.679 95.946,464.979 94.526,465.559 C96.366,460.881 100.923,457.56 106.261,457.56 C113.221,457.56 118.878,463.198 118.878,470.155 Z"
                  id="Path" fill="#FFFF5F"></path>
            <g id="Group" transform="translate(34.4761, 354.642)" stroke="#121C63" stroke-linecap="round"
               stroke-linejoin="round" stroke-width="2.682144">
                <circle id="Oval" cx="132.683876" cy="115.534247" r="12.6150173"></circle>
                <circle id="Oval" cx="71.7866901" cy="115.534247" r="12.6150173"></circle>
                <path d="M92.4821132,59.2020705 L92.4821132,87.28233 C92.4821132,87.8348517 92.9291372,88.2818757 93.4816589,88.2818757 L125.472484,88.2818757 C128.061647,88.2818757 129.404508,85.1938339 127.639657,83.3002403 L108.583918,62.844422 C105.826674,59.883335 101.962598,58.2025248 97.916137,58.2025248 L93.4816589,58.2025248 C92.9309253,58.2025248 92.4821132,58.6513369 92.4821132,59.2020705 L92.4821132,59.2020705 Z"
                      id="Path"></path>
                <circle id="Oval" cx="74.6476437" cy="89.4942048" r="4.26460896"></circle>
                <path d="M36.7972276,73.9556506 C38.6979736,73.9556506 44.4019999,72.3642451 44.4019999,78.2578095 L44.4019999,96.9827508 C44.4019999,99.4521114 46.4028793,101.452991 48.8722399,101.452991 C51.3416004,101.452991 53.3424799,99.4521114 53.3424799,96.9827508 L53.3424799,93.5317256 C53.3424799,91.323427 55.132364,89.5335429 57.3406625,89.5335429 L74.6458556,89.5335429"
                      id="Path"></path>
            </g>
            <path id="Line"
                  d="M246.525282,405.82361 L242.379622,396.654995 L236.702994,403.638968 L246.525282,405.82361 Z M144.321915,323.396241 L239.664634,400.891554 L240.052633,401.206923 L240.683369,400.430926 L240.295371,400.115557 L144.952651,322.620243 L144.564653,322.304875 L143.933916,323.080872 L144.321915,323.396241 Z"
                  transform="translate(195.6373, 364.5082) scale(-1, 1) translate(-195.6373, -364.5082)" fill="#54A9F5"
                  fill-rule="nonzero"></path>
            <path id="Line"
                  d="M246.52331,407.826021 L242.434839,398.631761 L236.71482,405.580241 L246.52331,407.826021 Z M155.319504,333.394269 L239.692328,402.85035 L240.078355,403.168129 L240.713912,402.396076 L240.327886,402.078297 L155.955062,332.622215 L155.569035,332.304436 L154.933477,333.07649 L155.319504,333.394269 Z"
                  transform="translate(201.1373, 370.5082) scale(1, -1) translate(-201.1373, -370.5082)" fill="#54A9F5"
                  fill-rule="nonzero"></path>
        </g>
        <g id="Akku"
           transform="translate(899.0524, -12.3142) rotate(-90) translate(-899.0524, 12.3142)translate(363.8121, -547.5544)">
            <g id="Group" stroke="#121C63" stroke-linecap="round" stroke-linejoin="round" stroke-width="3.2114415">
                <path d="M144.405678,82.2856951 L144.405678,131.808264 C144.405678,132.050193 144.20871,132.247161 143.966781,132.247161 L57.4869438,132.247161 C57.2450152,132.247161 57.0480468,132.050193 57.0480468,131.808264 L57.0480468,82.2856951 C57.0480468,82.0437665 57.2450152,81.8467981 57.4869438,81.8467981 L143.968922,81.8467981 C144.20871,81.8467981 144.405678,82.0437665 144.405678,82.2856951 Z"
                      id="Path" fill="#FFFFFF"></path>
                <path d="M157.048053,94.6668725 L157.048053,119.429227 C157.048053,119.506302 156.985965,119.566249 156.911032,119.566249 L144.405678,119.566249 L144.405678,94.529851 L156.911032,94.529851 C156.985965,94.529851 157.048053,94.5919389 157.048053,94.6668725 Z"
                      id="Path" fill="#FFFFFF"></path>
                <g fill="#FFFF5F" id="Path">
                    <polygon
                            points="66.3890596 91.8065486 84.7713508 91.8065486 84.7713508 122.28741 66.3890596 122.28741"></polygon>
                    <polygon
                            points="91.6288489 91.8065486 110.01114 91.8065486 110.01114 122.28741 91.6288489 122.28741"></polygon>
                    <polygon
                            points="116.866497 91.8065486 135.248788 91.8065486 135.248788 122.28741 116.866497 122.28741"></polygon>
                </g>
            </g>
            <path id="Line"
                  d="M200.691832,-118.735616 L192.096249,-113.504368 L199.719481,-108.720401 L200.691832,-118.735616 Z M77.8495689,77.9536729 L196.614812,-111.298259 L196.880588,-111.721772 L196.033562,-112.253324 L195.767786,-111.829811 L77.0025431,77.4221211 L76.7367672,77.8456339 L77.5837929,78.3771858 L77.8495689,77.9536729 Z"
                  fill="#54A9F5" fill-rule="nonzero"></path>
            <path id="Line"
                  d="M203.692964,-101.734904 L195.083421,-96.5266619 L202.693832,-91.7223247 L203.692964,-101.734904 Z M90.8488566,77.9548046 L199.597125,-94.3101522 L199.864033,-94.7329528 L199.018432,-95.2667681 L198.751524,-94.8439675 L90.0032554,77.4209894 L89.7363478,77.8437899 L90.5819489,78.3776052 L90.8488566,77.9548046 Z"
                  transform="translate(146.9261, -11.8121) scale(-1, -1) translate(-146.9261, 11.8121)" fill="#54A9F5"
                  fill-rule="nonzero"></path>
        </g>
    </g>
</svg>
